<svg width="160" height="40" viewBox="0 0 160 40" fill="none" xmlns="http://www.w3.org/2000/svg">
<g id="Novarge LMS-01 1">
<g id="Group">
<g id="Group_2">
<path id="Vector" d="M95.5436 19.559C95.9988 19.8149 95.9988 20.4972 95.5436 20.7531L92.2146 22.6862L88.8856 24.6194C88.4304 24.8753 87.8613 24.5626 87.8613 24.0224V20.156V16.3181C87.8613 15.7779 88.4304 15.4652 88.8856 15.7211L92.2146 17.6543L95.5436 19.559Z" fill="#6A1B9A"/>
<path id="Vector_2" d="M138.45 9.72266H134.068V19.9856H138.45V9.72266Z" fill="#1D1D1B"/>
<path id="Vector_3" d="M137.768 16.0054C137.313 14.7545 136.658 13.6742 135.805 12.7361C135.321 12.1959 134.752 11.7126 134.126 11.3146C133.699 11.0303 133.215 10.7744 132.703 10.547C131.48 10.0068 130.114 9.75098 128.578 9.75098C128.521 9.75098 128.492 9.75098 128.435 9.75098C128.378 9.75098 128.35 9.75098 128.293 9.75098C126.757 9.75098 125.391 10.0068 124.167 10.547C123.655 10.7744 123.2 11.0303 122.745 11.3146C122.119 11.7126 121.578 12.1959 121.066 12.7361C120.212 13.6742 119.558 14.7545 119.103 16.0054C118.648 17.2563 118.42 18.5925 118.42 19.9855C118.42 21.407 118.648 22.7432 119.131 23.994C119.615 25.2449 120.269 26.3253 121.123 27.2634C121.607 27.8036 122.147 28.2584 122.745 28.6565C123.172 28.9407 123.655 29.1966 124.139 29.424C125.305 29.9358 126.586 30.2201 128.008 30.2201C128.151 30.2201 128.293 30.2201 128.435 30.2201C128.578 30.2201 128.72 30.2201 128.862 30.2201C130.256 30.2201 131.537 29.9642 132.732 29.424C133.215 29.1966 133.699 28.9407 134.126 28.6565V30.4191C134.126 32.2101 133.585 33.6031 132.504 34.5982C131.48 35.5363 130.114 36.0196 128.435 36.0481C128.35 36.0481 128.265 36.0481 128.179 36.0481C127.041 36.0481 125.988 35.7922 125.021 35.2805C124.054 34.7687 123.285 34.0864 122.773 33.2336L119.615 35.2805L119.473 35.3658C120.326 36.7304 121.521 37.8391 123.058 38.692C124.594 39.5449 126.301 39.9713 128.236 39.9713C128.321 39.9713 128.378 39.9713 128.464 39.9713C129.915 39.9429 131.224 39.7439 132.419 39.3174C133.671 38.8626 134.752 38.2371 135.662 37.4127C136.317 36.7872 136.857 36.1049 137.313 35.3089C137.483 35.0246 137.625 34.7119 137.739 34.3992C138.223 33.2051 138.479 31.869 138.479 30.3622V19.9855C138.451 18.5925 138.223 17.2563 137.768 16.0054ZM126.131 25.6998C125.419 25.3587 124.822 24.9322 124.338 24.3636C123.854 23.795 123.484 23.1412 123.228 22.402C122.972 21.6628 122.83 20.8668 122.83 20.0139C122.83 19.1611 122.972 18.3651 123.228 17.5975C123.484 16.8299 123.854 16.176 124.338 15.6074C124.793 15.0673 125.391 14.6124 126.045 14.2997C126.074 14.2997 126.074 14.2712 126.102 14.2712C126.216 14.2144 126.33 14.1859 126.444 14.1291C126.529 14.1007 126.586 14.0722 126.671 14.0438C126.813 13.9869 126.956 13.9585 127.126 13.9301C127.155 13.9301 127.212 13.9017 127.24 13.9017C127.639 13.8164 128.037 13.7879 128.464 13.7879C128.891 13.7879 129.317 13.8164 129.687 13.9017C129.716 13.9017 129.773 13.9301 129.801 13.9301C129.943 13.9585 130.114 14.0154 130.256 14.0438C130.342 14.0722 130.399 14.1007 130.484 14.1291C130.598 14.1859 130.711 14.2144 130.825 14.2712C130.854 14.2712 130.854 14.2997 130.882 14.2997C131.565 14.6408 132.134 15.0673 132.589 15.6074C133.073 16.176 133.443 16.8299 133.699 17.5975C133.955 18.3651 134.097 19.1611 134.097 20.0139C134.097 20.8668 133.955 21.6628 133.699 22.402C133.443 23.1412 133.073 23.795 132.589 24.3636C132.106 24.9322 131.508 25.3587 130.797 25.6998C130.114 26.0125 129.346 26.1831 128.464 26.1831C127.582 26.1831 126.813 26.0125 126.131 25.6998Z" fill="#1D1D1B"/>
<path id="Vector_4" d="M20.0586 19.9855C20.0586 18.5925 20.2862 17.2563 20.7699 16.0054C21.2536 14.7545 21.908 13.6742 22.7901 12.7361C23.6721 11.7979 24.7248 11.0872 25.9483 10.547C27.2002 10.0068 28.5659 9.75098 30.0739 9.75098C31.5535 9.75098 32.9192 10.0068 34.1427 10.547C35.3661 11.0872 36.4189 11.8263 37.3009 12.7361C38.183 13.6742 38.8658 14.7545 39.3495 16.0054C39.8332 17.2563 40.0893 18.5925 40.0893 19.9855C40.0893 21.407 39.8332 22.7432 39.3495 23.994C38.8658 25.2449 38.183 26.3252 37.3009 27.2634C36.4189 28.2016 35.3661 28.9123 34.1427 29.4525C32.9192 29.9926 31.5535 30.2485 30.0739 30.2485C28.5944 30.2485 27.2287 29.9926 26.0052 29.4525C24.7817 28.9123 23.729 28.1732 22.847 27.2634C21.9649 26.3252 21.2821 25.2449 20.7984 23.994C20.3147 22.7432 20.0586 21.407 20.0586 19.9855ZM24.3834 19.9855C24.3834 20.8384 24.5257 21.6628 24.7817 22.402C25.0378 23.1696 25.4362 23.8235 25.9198 24.3921C26.432 24.9606 27.0295 25.3871 27.7124 25.7282C28.4237 26.041 29.1919 26.2115 30.0455 26.2115C30.8991 26.2115 31.6957 26.041 32.3786 25.7282C33.0899 25.4155 33.6874 24.9606 34.1711 24.3921C34.6833 23.8235 35.0532 23.1696 35.3092 22.402C35.5653 21.6628 35.7076 20.8384 35.7076 19.9855C35.7076 19.1326 35.5653 18.3082 35.3092 17.569C35.0532 16.8299 34.6548 16.1476 34.1711 15.579C33.659 15.0104 33.0615 14.584 32.3786 14.2428C31.6673 13.9301 30.8991 13.7595 30.0455 13.7595C29.1919 13.7595 28.3952 13.9301 27.7124 14.2428C27.001 14.5555 26.4035 15.0104 25.9198 15.579C25.4077 16.1476 25.0378 16.8014 24.7817 17.569C24.5257 18.3082 24.3834 19.1042 24.3834 19.9855Z" fill="#1D1D1B"/>
<path id="Vector_5" d="M39.2363 9.72266H43.8457L49.2517 23.8236L54.7146 9.72266H59.2386L50.7881 30.2202H47.6868L39.2363 9.72266Z" fill="#1D1D1B"/>
<path id="Vector_6" d="M150.715 26.6095C151.654 26.6095 152.592 26.439 153.475 26.0694C154.385 25.6998 155.182 25.0744 155.865 24.1646L159.222 26.1831C158.198 27.5761 156.946 28.628 155.466 29.2819C153.987 29.9642 152.393 30.2769 150.658 30.2769C149.064 30.2769 147.642 30.0211 146.39 29.5093C145.138 28.9976 144.028 28.2869 143.118 27.3771C142.207 26.4674 141.496 25.3871 141.012 24.1078C140.529 22.8569 140.272 21.4638 140.272 19.9855C140.272 18.5925 140.5 17.2563 140.927 16.0054C141.382 14.7545 142.008 13.6742 142.862 12.7361C143.715 11.7979 144.74 11.0872 145.963 10.547C147.186 10.0068 148.524 9.75098 150.032 9.75098C151.511 9.75098 152.849 10.0068 154.044 10.547C155.239 11.0872 156.234 11.7979 157.06 12.7076C157.885 13.6174 158.539 14.6692 158.966 15.8633C159.421 17.0573 159.62 18.3082 159.62 19.6444C159.62 20.0139 159.62 20.3551 159.592 20.6678C159.592 20.9805 159.563 21.208 159.535 21.3786H144.626C144.768 22.9422 145.365 24.1931 146.418 25.1596C147.556 26.1262 148.951 26.6095 150.715 26.6095ZM150.117 13.7595C148.609 13.7595 147.386 14.1859 146.447 15.0388C145.508 15.8917 144.967 16.9436 144.825 18.1945H155.295C155.239 17.5975 155.068 17.0004 154.812 16.4603C154.556 15.9201 154.186 15.4653 153.731 15.0388C153.275 14.6408 152.763 14.3281 152.137 14.0722C151.511 13.8732 150.828 13.7595 150.117 13.7595Z" fill="#1D1D1B"/>
<path id="Vector_7" d="M58.3849 19.9856C58.3849 18.5357 58.641 17.1996 59.1247 15.9487C59.6084 14.6978 60.3197 13.6175 61.2017 12.7077C62.0837 11.7696 63.1365 11.0588 64.36 10.5187C65.5834 10.0069 66.8922 9.72266 68.3149 9.72266C69.5383 9.72266 70.7618 9.97852 71.9853 10.4902C73.2372 11.002 74.2899 11.7696 75.172 12.793L76.5377 10.0069H78.6432V29.8506H75.172V27.1498C74.4038 28.1733 72.9811 28.8556 71.7292 29.4242C70.4773 29.9927 69.2538 30.277 68.0019 30.277C66.6646 30.277 65.3842 30.0212 64.2177 29.481C63.0511 28.9693 62.0268 28.2301 61.1448 27.3204C60.2628 26.4106 59.5799 25.3303 59.0962 24.051C58.641 22.8001 58.3849 21.4355 58.3849 19.9856ZM62.7666 19.9572C62.7666 20.8385 62.9089 21.663 63.1934 22.4305C63.4779 23.1981 63.8763 23.852 64.3884 24.4206C64.9006 24.9892 65.5265 25.4156 66.2094 25.7568C66.8922 26.0695 67.6889 26.2401 68.5425 26.2401C69.3961 26.2401 70.1928 26.0695 70.8756 25.7568C71.5869 25.444 72.2129 24.9892 72.725 24.4206C73.2372 23.852 73.6355 23.1697 73.9201 22.3737C74.2046 21.5777 74.3468 20.7248 74.3468 19.7866C74.3468 18.9622 74.2046 18.1946 73.9201 17.4554C73.6355 16.7447 73.2372 16.0908 72.725 15.5507C72.2129 15.0105 71.5869 14.5556 70.8756 14.2429C70.1643 13.9302 69.3961 13.7596 68.5425 13.7596C67.7174 13.7596 66.9491 13.9302 66.2378 14.2429C65.5265 14.5556 64.929 15.0105 64.4169 15.5791C63.9047 16.1477 63.5064 16.8015 63.2218 17.5407C62.9089 18.2514 62.7666 19.0475 62.7666 19.9572Z" fill="#1D1D1B"/>
<path id="Vector_8" d="M80.8907 9.72266H75.2002V12.793H80.8907V9.72266Z" fill="#1D1D1B"/>
<path id="Vector_9" d="M80.8907 27.2065H75.2002V30.2769H80.8907V27.2065Z" fill="#1D1D1B"/>
<path id="Vector_10" d="M17.5553 15.0104C17.3277 14.4418 17.0432 13.9017 16.7302 13.4184C16.4457 12.9919 16.1327 12.5939 15.7912 12.2528C15.4214 11.8832 15.0515 11.5705 14.6247 11.3146C14.1694 11.0019 13.6573 10.746 13.1167 10.547C11.8363 10.0637 10.4421 9.75098 9.07641 9.75098C7.71068 9.77941 6.40185 10.0637 5.12148 10.547C4.58088 10.746 4.06873 11.0019 3.61349 11.3146C3.1867 11.5989 2.78836 11.9116 2.44693 12.2528C2.21931 12.4802 1.99169 12.7361 1.79252 13.0203C1.33728 13.6174 0.967391 14.2712 0.682865 15.0104C0.227622 16.0907 0 17.3132 0 18.7062V24.6195V30.2769H4.2679V29.4809V23.6245V19.0758C4.2679 17.7112 4.55243 16.375 5.60518 15.4653C6.60102 14.584 7.90985 13.9869 9.21867 14.0154C10.3852 14.0438 11.4949 14.5555 12.3769 15.2947C12.9175 15.7211 13.3159 16.2044 13.5435 16.8867C13.7996 17.5975 13.8849 18.3366 13.8849 19.0758V23.6245V29.5093V30.3053H18.1528V24.6195V18.7062C18.2097 17.3132 18.0106 16.0907 17.5553 15.0104Z" fill="#1D1D1B"/>
<path id="Vector_11" d="M108.576 30.0782H104.308V10.2062H106.356L107.807 13.0207C108.376 12.0825 109.173 11.3149 110.197 10.7748C111.222 10.2062 112.36 9.92188 113.64 9.92188C114.579 9.92188 115.518 10.0924 116.457 10.4052C117.396 10.7179 118.249 11.2012 119.018 11.8266L116.884 15.1244C116.315 14.7264 115.746 14.4137 115.205 14.2147C114.664 14.0157 114.067 13.902 113.412 13.902C112.217 13.902 111.193 14.3 110.283 15.0676C109.372 15.8352 108.832 16.8302 108.604 18.0527V30.0782H108.576Z" fill="#1D1D1B"/>
<path id="Vector_12" d="M107.807 9.72266H102.116V12.793H107.807V9.72266Z" fill="#1D1D1B"/>
<path id="Vector_13" d="M108.575 27.2065H102.116V30.2769H108.575V27.2065Z" fill="#1D1D1B"/>
<path id="Vector_14" d="M107.807 12.4518V13.589L106.954 13.1626L106.242 11.5137L107.807 12.4518Z" fill="#1D1D1B"/>
</g>
</g>
</g>
</svg>
